<?xml version="1.0" encoding="UTF-8"?>
<svg id="Capa_2" data-name="Capa 2" xmlns="http://www.w3.org/2000/svg" viewBox="0 0 87.87 87.64">
  <defs>
    <style>
      .cls-1 {
        fill: #fff;
        stroke-width: 0px;
      }
    </style>
  </defs>
  <g id="Capa_1-2" data-name="Capa 1">
    <g>
      <path class="cls-1" d="M35.17,64.69h.1c-.13.12-2.11,1.13-2.47,1.35-2.87,1.67-6.03,4.27-7.72,7.16-1.78,3.04-1.7,6.08-.84,9.38-.64.24-1.47.47-2.15.55-.13-.08-.15-.2-.22-.33-.67-1.91-1.42-4.03-1.19-6.08.09-.87.46-1.69.92-2.42.95-1.51,2.24-2.81,3.45-4.11l2.98-3.16c.71-.74,1.4-1.62,2.19-2.26,1.64.05,3.32,0,4.96-.08Z"/>
      <path class="cls-1" d="M51.82,13.85c.95,1.04,1.74,1.14,3.04,1.49.84.23,1.75.5,2.54.85,1.2.54,2.34,1.3,3.5,1.93-.88-.13-1.76-.28-2.63-.44-2.01-.37-3.77-.75-5.44-2.02.3.68.68,1.35,1.2,1.88,1.69,1.76,4.53,1.86,6.82,1.9-.7.26-1.84.44-2.39.75-.8.44-1.76,1.38-2.38,2.06-1.76,1.93-2.75,4.16-3.24,6.71-.23,1.22-.4,2.43-.73,3.62-.56,1.75-1.41,3.57-2.82,4.81-1.55,1.37-3.54,1.8-5.56,1.67.45-.1.88-.2,1.31-.37,3.53-1.44,4.97-5.19,5.76-8.63.35-1.52.58-3.11,1.15-4.57.89-2.25,2.38-4.2,4.13-5.85-.84-.36-1.61-.76-2.28-1.4-1.22-1.17-1.98-2.71-2.01-4.4Z"/>
      <path class="cls-1" d="M64.13,53.04c.22.13.55,1.44.66,1.75,2.22,5.99,5.98,10.47,11.05,14.29-.77-.07-1.55-.12-2.33-.15-.59-.02-1.19,0-1.78-.06-.52-.33-1.01-.74-1.5-1.12-3.3-2.55-6.42-5.52-9-8.81-.51-.65-1.05-1.31-1.45-2.03,1.74-.96,3.07-2.37,4.35-3.86Z"/>
      <path class="cls-1" d="M44,.01c3.16-.12,6.28.51,9.22,1.65-.64.6-1.04,1.27-1.47,2.02.72-.72,1.41-1.2,2.34-1.61,1.12.51,2.37,1.21,3.35,1.96-.65.51-1.23.98-1.71,1.66.79-.55,1.46-.83,2.38-1.11,1.05.56,2.03,1.57,2.86,2.43-.73.37-1.36.81-1.99,1.31.42-.19.83-.39,1.27-.52.39-.12.78-.18,1.15-.34.21.23.42.46.62.69.2.24.39.48.58.72.19.24.37.49.55.75.18.25.35.51.51.77.16.26.32.53.47.8.15.27.29.54.43.82.14.28.27.56.39.84.12.28.24.57.35.86.16.42.41,1.76.51,1.94.03.06,1.85,1.34,2.08,1.55,1.21,1.1,2.06,2.52,3.25,3.65,1.16,1.09,3.68,3.01,4.37,4.3.05.09.09.19.12.29.14.52-.23.97-.43,1.42-.17.37-.14.82-.36,1.17-.64,1.05-1.75,1.79-2.32,2.85-.64,1.19-.54,2.48-.16,3.74-.93-.83-1.78-1.85-2.28-3-.17-.39-.28-.82-.46-1.2-.1-.2-.22-.41-.45-.48-.5-.16-1.22-.08-1.74-.08-1.5,0-2.99-.04-4.43-.55-1.38-.48-2.6-1.34-3.24-2.68-.63-1.33-.75-3.38-.26-4.77.17,1.23.45,2.33,1.24,3.32,1.56,1.96,4.2,2.35,6.53,2.62-.32-.52-.58-1.09-.6-1.7-.02-.83.36-1.49.91-2.07.28-.27.68-.49.91-.8.11-.15.19-.38.14-.56-.24-.97-2.43-.76-3.22-1.05-.69-.25-.85-1.2-1.33-1.69-.2-.2-.45-.33-.69-.46.9.03,2.32-.1,3.1.41.52.34.76.93,1.19,1.35.78.78,2.09,1.36,2.37,2.53-.2.33-.62.53-.88.83-.23.27-.32.62-.28.96.06.51.41.96.81,1.27.99.76,3.3,1.21,4.54,1.05.17-.19.33-.35.34-.62.05-.76-1.09-1.51-1.54-2.04-.01-.02-.03-.04-.04-.05.71.09,1.34.26,1.99.53-.06-.14-.12-.28-.19-.41-.55-1.02-1.82-1.73-2.69-2.46-.69-.58-1.37-1.2-1.99-1.85-.92-.95-1.66-2.05-2.61-2.98-.38-.37-.78-.72-1.2-1.04-.38-.3-.84-.57-1.14-.94-.35-.44-.59-1.03-.88-1.51-.37-.59-.81-1.16-1.24-1.71-.1-.13-.2-.26-.3-.39-.1-.13-.2-.25-.3-.38-.1-.13-.21-.25-.31-.37-.11-.12-.21-.25-.32-.37-.11-.12-.22-.24-.33-.36-.11-.12-.22-.24-.33-.35-.11-.12-.23-.23-.34-.35-.11-.11-.23-.23-.35-.34-.12-.11-.23-.22-.35-.33-.12-.11-.24-.22-.36-.33-.12-.11-.24-.21-.37-.32-.12-.11-.25-.21-.37-.31-.13-.1-.25-.2-.38-.3-.13-.1-.26-.2-.39-.3-.13-.1-.26-.19-.39-.29-.13-.09-.26-.19-.4-.28-.13-.09-.27-.18-.4-.27-.14-.09-.27-.18-.41-.26-.14-.09-.27-.17-.41-.26-.14-.08-.28-.17-.42-.25-.14-.08-.28-.16-.42-.24-.14-.08-.28-.16-.43-.23-.14-.08-.29-.15-.43-.22-.14-.07-.29-.14-.44-.21-.15-.07-.29-.14-.44-.21-.15-.07-.3-.13-.44-.2-.15-.06-.3-.13-.45-.19-.15-.06-.3-.12-.45-.18-.15-.06-.3-.11-.46-.17-.15-.05-.31-.11-.46-.16-.15-.05-.31-.1-.46-.15-.15-.05-.31-.1-.46-.14-.3-.09-.61-.18-.92-.26-.31-.08-.62-.16-.93-.23-.31-.07-.62-.13-.93-.19-.31-.06-.63-.11-.94-.16-.31-.05-.63-.09-.95-.13-.32-.04-.63-.07-.95-.09-.32-.03-.63-.05-.95-.06-.32-.01-.64-.02-.95-.03-.32,0-.64,0-.95,0-.32,0-.64.02-.95.04-.32.02-.63.04-.95.07s-.63.07-.95.11c-.32.04-.63.09-.94.14-.31.05-.63.11-.94.17-.31.06-.62.13-.93.21-.31.07-.62.15-.92.24-2.04.58-4.04,1.47-5.9,2.48.09-.12.19-.23.29-.35.42-.46.91-.88,1.38-1.29C34.82,1.58,39.24.23,44,.01Z"/>
      <path class="cls-1" d="M41.79,4.41c1.2-.03,2.38-.04,3.57.17-.56.98-.93,1.8-1.08,2.94.56-1.13,1.14-1.96,2.07-2.83,1.19.18,2.38.37,3.53.76-.67.84-1.15,1.87-1.44,2.9.62-.89,1.32-2.06,2.25-2.65,1.2.35,2.34.79,3.42,1.45-.78.66-1.44,1.49-1.71,2.48.66-.89,1.4-1.55,2.31-2.2.97.46,1.85,1.16,2.69,1.82-.58.66-1.19,1.26-1.7,1.98.77-.53,1.54-1.04,2.32-1.56.7.57,1.34,1.18,1.96,1.85-.6.61-1.22,1.13-1.72,1.83.74-.47,1.43-.89,2.23-1.28,1.35,1.59,2.62,3.3,3.18,5.35-2.1-.99-3.91-1.39-6.24-1.38-.56-.86-1.22-1.63-1.96-2.34-4.06-3.92-8.94-5.31-14.47-5.23-3.28.23-6.51.92-9.42,2.5-3.2,1.74-5.71,4.61-6.73,8.14-.91,3.15-.52,6.4,1.05,9.26-1.33-1.2-2.21-2.97-2.72-4.67-.99-3.35-.4-7.13,1.28-10.15,1.26-2.27,3.11-4.05,5.25-5.49.46-.31.99-.71,1.53-.87.07.61.14,1.19.35,1.77-.04-.72-.06-1.36.18-2.06,1.3-.63,2.64-1.22,4.05-1.56-.19.99-.26,1.86-.08,2.86.05-1.13.25-2.05.84-3.04,1.26-.42,2.65-.6,3.98-.67-.21.56-.42,1.12-.52,1.71-.05.3-.14.97.04,1.23.16-1.13.28-1.47.97-2.43.23-.32.37-.52.77-.59Z"/>
      <path class="cls-1" d="M59.76,28.43c.07.02.13.05.2.07,3.44,1.27,4.97,3.08,6.45,6.35,1.35,2.97,1.66,6.41,1.16,9.61-.12.78-.28,1.59-.56,2.33-.08-1.8-.22-3.47-.91-5.16,0,1.34,0,2.66-.22,3.99-.65,3.95-2.95,7.38-6.18,9.7.23-.86.46-1.72.71-2.57-1.27,1.62-2.01,3.33-2.14,5.39-.19,3.12.77,6.5,2.44,9.13.56.88,1.22,1.66,1.91,2.44-1,.25-2.04.41-3.05.6-1.37-1.96-2.72-3.99-3.87-6.09-.65-1.19-1.32-2.4-1.87-3.63-.35-.79-.63-1.61-.9-2.43-.82-2.49-1.32-4.94-1.01-7.57.13-1.14.43-2.19.75-3.29.39-.97.82-1.87,1.31-2.8-.27,1.1-.66,2.14-.86,3.27-.76,4.39.27,8.82,2.26,12.75-.28-1.43-.29-2.82-.17-4.26.27-3.22,1.32-5.84,2.44-8.83,1.32-3.52,1.77-7.11.73-10.77-.24-.85-.58-1.67-.91-2.49,2.13,2.03,3.95,5.25,4.83,8.03.26.81.4,1.63.6,2.45.04-.47.07-.95.08-1.43.07-4.74-2.02-8.73-5.24-12.07.74.32,1.49.64,2.17,1.07,1.78,1.12,3.65,3.05,4.6,4.94-.81-3.25-2.84-6.05-4.78-8.72Z"/>
      <path class="cls-1" d="M69.28,69.82c1.39-.08,2.78.02,4.17.1,1.22.07,2.44.17,3.66.31,1.22.14,2.43.32,3.63.53,1.21.21,2.4.46,3.59.74,1.19.28,2.37.6,3.54.95-1.37.08-2.76.04-4.13.09-2.51.1-5,.33-7.49.67-.56.08-1.12.16-1.68.26-.56.09-1.11.19-1.67.3s-1.11.22-1.66.34c-.55.12-1.1.25-1.65.39-.55.14-1.09.28-1.64.43-.54.15-1.09.31-1.63.47-.54.17-1.08.34-1.61.52-.54.18-1.07.37-1.6.56-.53.19-1.06.39-1.59.6-.53.21-1.05.42-1.57.64-.52.22-1.04.45-1.55.68-.51.23-1.03.48-1.53.72-.51.25-1.01.5-1.51.76-.5.26-1,.53-1.49.8-.49.27-.98.56-1.47.84-.49.29-.97.58-1.45.88-2.27,1.4-4.46,2.89-6.5,4.61.34-.63.8-1.22,1.22-1.79.31-.41.62-.82.95-1.22.33-.4.66-.79,1.01-1.17.34-.38.7-.76,1.06-1.12s.73-.72,1.11-1.07c.38-.35.77-.69,1.16-1.02s.8-.65,1.21-.96c.41-.31.83-.61,1.25-.9.42-.29.86-.57,1.29-.84,1.06-.66,2.18-1.28,3.29-1.86.56-.29,1.14-.55,1.69-.86-1.67.39-3.32.98-4.95,1.54-1.82.61-3.63,1.25-5.42,1.93-3.08,1.19-6.13,2.51-9.26,3.58-2.3.78-4.59,1.61-6.91,2.35-4.54,1.44-9.19,2.63-13.91,3.28-5.76.79-11.47.99-17.27.42-.39-.04-1.75-.09-1.99-.27h.04s.02-.03.02-.03c11.16.28,22.43-2.14,32.81-6.15,2.83-1.12,5.63-2.28,8.43-3.48,1.66-.72,3.31-1.48,4.98-2.16,3.92-1.59,7.98-3.05,12.12-3.96,1.33-.29,2.69-.47,4.03-.69,1.15-.18,2.3-.39,3.45-.53,1.12-.13,2.26-.17,3.39-.22Z"/>
      <path class="cls-1" d="M40.38,41.01c.22-.03.45-.02.68-.02-.97.33-2.07.44-3.08.68-3.87.92-8.04,1.96-11.29,4.36-4.18,3.08-6.28,6.99-5.88,12.24.11,1.51.53,2.97.6,4.5.09,1.77-.12,3.57-.39,5.32.53-1.44,1.24-2.79,1.86-4.18,1.61-3.61,3-7.03,5.7-10.01.11-.12.21-.23.32-.35s.22-.23.33-.34c.11-.11.23-.22.34-.33.12-.11.23-.22.35-.32s.24-.21.36-.31c.12-.1.24-.2.36-.31.12-.1.25-.2.37-.3.13-.1.25-.19.38-.29.13-.09.26-.19.39-.28.13-.09.26-.18.39-.27.13-.09.27-.17.4-.26.13-.08.27-.17.41-.25.14-.08.27-.16.41-.24s.28-.15.42-.23c.14-.07.28-.15.42-.22.14-.07.28-.14.43-.21.14-.07.29-.13.43-.2.15-.06.29-.13.44-.19.15-.06.29-.12.44-.17.15-.06.3-.11.45-.16.15-.05.3-.1.45-.15.15-.05.3-.1.45-.14.15-.05.3-.09.46-.13.15-.04.31-.08.46-.12.15-.04.31-.07.46-.11.15-.03.31-.07.47-.1.16-.03.31-.06.47-.08.16-.03.31-.05.47-.07.16-.02.31-.04.47-.06.16-.02.32-.03.47-.05.16-.01.32-.03.47-.04.16-.01.32-.02.47-.03-.26.08-.52.17-.78.27s-.51.2-.76.31c-.25.11-.5.23-.74.35-.24.12-.49.26-.72.39-.24.14-.47.28-.7.43s-.45.31-.67.47c-.22.16-.44.33-.65.51-.21.17-.42.36-.62.54,1.46-.13,2.93-.24,4.37-.5,3.84-.69,7.16-2.5,9.82-5.37.83-.9,1.45-1.96,2.26-2.87l.03-.03c-.09.19-.19.38-.28.57-2.44,5.14-3,10.64-1.08,16.03-.8.44-1.61.84-2.45,1.21-.83.37-1.68.71-2.54,1.01-.71.3-1.51.5-2.25.73-4.73,1.43-9.53,1.72-14.44,1.43-1.57,1.66-3.11,3.37-4.71,5.01-1.19,1.21-2.45,2.4-3.53,3.72-2.94,3.62-3.77,7.81-3.99,12.34-.85.12-1.67.36-2.52.47.16-1.15.23-2.32.33-3.47.16-2.13.35-4.27.55-6.4.09-.92.07-1.93.27-2.83.11-.51.6-.92.88-1.35.86-1.32,1.46-2.94,1.65-4.51.08-.72.12-1.44.13-2.16,0-.72-.02-1.44-.09-2.16-.13-1.29-.37-2.56-.41-3.86-.06-1.91.29-3.81.81-5.65-2.07.62-3.09,1.34-4.6,2.85.19-.74.53-1.38.89-2.04-1.37.76-2.2,1.52-3.05,2.81.01-1.85.57-3.38,1.9-4.7,1.67-1.66,4.34-2.69,6.69-2.69.19-.26.39-.5.59-.75,4.45-5.23,12.36-6.23,18.78-6.75Z"/>
    </g>
  </g>
</svg>