<?xml version="1.0" encoding="UTF-8"?>
<svg id="Capa_2" data-name="Capa 2" xmlns="http://www.w3.org/2000/svg" xmlns:xlink="http://www.w3.org/1999/xlink" viewBox="0 0 244.21 244.21">
  <defs>
    <style>
      .cls-1 {
        fill: #000;
      }

      .cls-1, .cls-2, .cls-3, .cls-4 {
        stroke-width: 0px;
      }

      .cls-2 {
        fill: #3c3c3b;
      }

      .cls-5 {
        filter: url(#outer-glow-1);
      }

      .cls-3 {
        fill: #fff;
      }

      .cls-4 {
        fill: url(#Degradado_sin_nombre_54);
      }
    </style>
    <radialGradient id="Degradado_sin_nombre_54" data-name="Degradado sin nombre 54" cx="122.1" cy="122.1" fx="122.1" fy="122.1" r="122.1" gradientUnits="userSpaceOnUse">
      <stop offset="0" stop-color="#574999"/>
      <stop offset=".01" stop-color="#594a9a"/>
      <stop offset=".17" stop-color="#6b5da5"/>
      <stop offset=".34" stop-color="#7768ac"/>
      <stop offset=".51" stop-color="#7b6caf"/>
      <stop offset="1" stop-color="#574999"/>
    </radialGradient>
    <filter id="outer-glow-1" filterUnits="userSpaceOnUse">
      <feOffset dx="0" dy="0"/>
      <feGaussianBlur result="blur" stdDeviation="2.71"/>
      <feFlood flood-color="#1d1d1b" flood-opacity=".65"/>
      <feComposite in2="blur" operator="in"/>
      <feComposite in="SourceGraphic"/>
    </filter>
  </defs>
  <g id="Capa_1-2" data-name="Capa 1">
    <g>
      <rect class="cls-4" width="244.21" height="244.21" rx="63.38" ry="63.38"/>
      <g class="cls-5">
        <path class="cls-2" d="M140.52,164.81c5.45-5.23,10.43-10.67,13.68-17.47.51-1.07.8-2.1.5-3.37-.41-1.74.34-3.25,1.5-4.58,1.28-1.47,2.6-2.93,3.73-4.52,1.44-2.04,2.64-4.24,4.05-6.3.6-.88,1.35-1.75,2.23-2.33.76-.5.78-1.02.74-1.75-.18-3.3-.51-6.6-.45-9.9.11-5.61,2.19-10.55,5.68-14.93,2.66-3.34,6.09-5.68,9.7-7.85,2.61-1.56,5.21-3.18,7.65-4.99,4.34-3.23,6.54-7.8,7.66-12.97.11-.52.23-1.05.41-1.87.53.51.98.85,1.3,1.28,3.31,4.42,5.2,9.48,6.45,14.79,1.85,7.85,2.02,15.77.32,23.64-1.7,7.84-6.3,13.87-12.74,18.45-2.53,1.8-5.41,3.11-8.1,4.68-.33.19-.66.59-.73.94-.36,1.68-1.03,3.16-2.39,4.28-.34.28-.57.71-.79,1.11-1.42,2.6-2.84,5.2-4.23,7.81-.19.35-.33.76-.37,1.16-.28,2.54-1.81,4.49-4.32,4.84-1.7.23-2.85,1.13-3.91,2.23-4.3,4.42-8.55,8.88-12.83,13.32-2.44,2.54-4.92,5.04-7.33,7.61-.28.3-.4.97-.29,1.39,1.62,6.35,2.18,12.81,1.44,19.3-1.39,12.15-6.34,22.6-15.65,30.74-3.75,3.27-7.99,5.69-12.97,6.7-6.77,1.38-13.07-2.17-15.38-8.77-1.17-3.33-1.3-6.78-1.32-10.26-.05-10.25,3.81-19.02,10.05-26.9,1.53-1.94,3.16-3.79,4.84-5.8-1.44-2.2-3.42-4.03-5.64-5.61-5.18-3.68-11.06-5.78-17.12-7.42-8.25-2.23-16.45-4.57-24.08-8.56-10-5.23-18.59-12.07-24.74-21.66-4.54-7.08-7.35-14.83-8.73-23.12-.89-5.36-1.19-10.74-.72-16.14,1.2-13.77,5.87-26.14,14.91-36.72,5.73-6.71,12.46-12.13,20.53-15.8.07-.03.1-.13.2-.25-3.44-1.17-6.85-2.37-9.6-4.81-1.21-1.07-2.27-2.34-3.22-3.65-.84-1.16-.43-1.74,1.01-1.74,5.45,0,10.9,0,16.35,0,.16,0,.33-.02.44-.03-1.72-.81-3.55-1.49-5.19-2.48-3.67-2.23-6.52-5.21-7.82-9.44-.52-1.7-.17-2.02,1.54-1.67,5.47,1.12,10.94,2.2,16.41,3.3.36.07.72.16,1.17.27-1.41-1.23-2.83-2.29-4.05-3.55-2.21-2.29-3.78-4.98-4.35-8.17-.05-.29-.09-.58-.08-.87.03-1.15.54-1.47,1.62-1.02,5.73,2.38,11.46,4.77,17.19,7.16.29.12.58.24.76.31-1.34-1.69-2.8-3.36-4.06-5.17-1.38-1.98-2.08-4.27-2.38-6.66-.06-.5-.13-1.03,0-1.5.18-.65.53-1.25.81-1.87.54.26,1.14.45,1.62.8,4.93,3.53,9.85,7.08,14.77,10.63.74.54,1.45,1.12,2.04,1.58-.48-1.58-1.27-3.26-1.45-5-.18-1.73.12-3.55.44-5.3.21-1.13,1-1.33,1.69-.56,5,5.64,10.08,11.22,14.92,16.99,2.48,2.96,4.03,6.5,4.67,10.39.06.38.6.8,1.02.99,3.59,1.65,7.24,3.17,10.78,4.93,1.26.63,2.21,1.88,3.37,2.75.49.37,1.15.64,1.76.72,3.69.47,7.4.78,11.07,1.32,2.78.4,5.5,1.1,7.6,3.19,2.3,2.29,2.95,5.21,2.82,8.29-.13,3.13-1.05,6.09-2.97,8.63-.38.5-.96.84-1.45,1.25-.41-.51-.85-.99-1.2-1.53-.22-.34-.3-.77-.53-1.37-1.06,2.6-2.4,4.77-5.36,5.56.62-1.74,1.31-3.21,1.62-4.76.18-.89-.02-2.04-.46-2.84-.78-1.4-2.16-1.08-3.45-.69-2.5.77-4.99,1.62-7.53,2.23-2.18.52-4.45.7-6.65,1.16-1.02.22-1.98.76-3.12,1.22,1.54,1.04,2.9,1.84,4.12,2.81,1.8,1.44,3.43,3.08,5.24,4.5,3.4,2.66,4.78,2.66,8.48.37.4-.25.93-.29,1.41-.43.05.54.26,1.13.14,1.63-1.41,5.75-5,9.44-10.73,10.86-2.77.69-5.57.2-7.65-1.78-4.35-4.14-9.58-6.41-15.24-7.98-5.65-1.57-11.37-2.75-17.26-2.65-8.31.14-15.43,3.23-21.34,9.08-4.9,4.85-8.33,10.53-9.7,17.34-1.86,9.26.23,17.65,5.78,25.22,4.69,6.38,11.36,9.8,18.63,12.28,5.71,1.94,11.52,3.64,17.12,5.86,10.02,3.98,18.48,10.19,25.11,18.78.15.2.34.37.61.67ZM64.63,73.94c-.4.5-.72.79-.91,1.15-.46.88-.99.8-1.7.3-.92-.65-1.89-1.22-3.01-1.92-1.46,2.41-2.9,4.77-4.31,7.08,3.44,1.83,6.68,3.54,10.07,5.34,2.61-5.36,6.27-10.04,10.71-14.23-2.8-.35-5-1.85-6.36-4.22,2.78-2.19,5.56-4.38,8.49-6.7-5.55,0-8.79,3.55-11.99,6.8,1.78,1.97,3.49,3.85,5.09,5.62-2.3,3.07-4.69,6.27-7.13,9.53-1.9-1.04-3.76-2.05-5.66-3.08.69-1.09,1.31-2.07,1.96-3.1,1.23.73,2.39,1.43,3.61,2.15,1.33-1.76,2.58-3.42,3.9-5.17-2.35-1.79-4.63-3.53-7.08-5.41,2.51-2.39,4.93-4.69,7.37-7.01-.31-.19-.69-.41-1.07-.65-.38-.24-.75-.49-1.13-.74-13.52,10.41-20.99,24.06-22.63,40.97,5.86.48,11.56.95,17.04,1.4,1.13-4.64,2.21-9.11,3.33-13.71-.19-.07-.63-.3-1.1-.44-2.68-.77-5.36-1.51-8.05-2.27-1.59-.45-1.97-.39-2.54,1.09-.85,2.21-1.59,4.47-2.22,6.75-.24.88.1,1.73,1.24,1.9.95.14,1.9.29,2.84.48,2.32.48,2.32.49,2.91-1.77.08-.32.11-.67.24-.97.28-.62.18-.95-.51-1.24-.72-.31-1,.01-1.29.52-.23.39-.38.99-.72,1.13-.5.21-1.15.19-1.69.07-.18-.04-.4-.73-.31-1.04.38-1.39.86-2.76,1.33-4.22,2.1.49,4.13.94,6.14,1.45.21.05.51.51.47.71-.64,3-1.34,5.99-2.05,9.15-4.14-.48-8.19-.95-12.23-1.42.9-9.95,6.96-22.92,13.34-28.53,1.84,1.39,3.69,2.79,5.63,4.25ZM162.85,63.89c.74-1.47.99-3.32.86-6.48-.2-5.19-3.6-6.65-7.62-6.22-1.14.12-2,.63-2.46,1.93-1.57,4.44-4.8,7.16-9.43,7.78-4.01.53-8.09.59-12.14.81-2.84.16-5.43.81-7.4,3.09-2.17,2.52-1.59,4.75,1.57,5.74,2.84.89,5.59,1.99,7.93,3.88,2.64,2.14,5.2,4.39,7.8,6.59-.55-.08-1.05-.26-1.5-.52-2.64-1.53-5.19-3.22-7.91-4.58-2.75-1.37-5.64-2.46-8.5-3.59-1.7-.67-2.82-1.73-3-3.62-.07-.7-.14-1.39-.19-1.9-2.38-.37-4.64-.72-6.93-1.07v2.17c4.81.56,6.03,1.24,6.44,3.56-1.25-.41-2.5-.85-3.77-1.23-2.82-.84-3.24-.69-4.82,1.52,3.44.92,7.03,1.67,10.48,2.84,6.49,2.21,12.89,4.66,17.96,9.59.2.19.49.38.76.41,2.57.21,6.55-.37,8.43-3.44-3.4,0-5.91-1.81-8.31-3.86-1.4-1.2-2.84-2.35-4.22-3.57-2.79-2.45-6.07-3.92-9.58-5-.6-.19-1.52-.78-1.52-1.18,0-.66.53-1.44,1.05-1.93.55-.52,1.33-.85,2.06-1.13,3.2-1.2,6.52-1.26,9.89-1.14,2.04.07,4.12.06,6.11-.31,2.77-.52,5.46-1.46,8.19-2.16,3.57-.92,7.48-.63,9.74,3.03ZM111.01,55.5c-.66,3.31.98,7.51,4.62,8.09,1.88.3,3.82.33,5.74.31.58,0,1.28-.45,1.7-.9,2.27-2.4,5.1-3.4,8.3-3.54,3.01-.13,6.03-.1,9.04-.29,2.77-.17,5.48-.7,7.79-2.38,2.13-1.54,3.23-3.72,3.76-6.32-1.23-.11-2.31-.2-3.38-.31-2.24-.25-4.33-.13-5.69,2.05-.02.03-.05.07-.09.09-2.48.86-4.15,2.86-6.19,4.35-3.51,2.55-9.13,1.35-11.6-2.26-1.82-2.67-4.35-4.18-7.45-4.16-2.73.01-4.55-1.07-5.98-3.18-.89-1.3-1.74-2.63-2.71-4.12-1.25.81-2.45,1.6-3.84,2.5,1.35,1.54,2.44,3.04,3.8,4.25,1.33,1.18,2.92,2.07,4.5,3.15-4.78.52-8.49-1.48-11.84-4.5-1.25,1.19-2.44,2.33-3.71,3.55,4.19,2.12,8.61,3.04,13.23,3.62ZM66.07,98.31c-.11.34-.23.68-.32,1.03-1.32,5.28-1.41,10.59-.23,15.9,2.06,9.31,6.67,17.05,14.3,22.88,4.84,3.7,10.4,5.95,16.1,7.92,5.66,1.96,11.45,3.61,16.98,5.87,7.77,3.17,14.78,7.64,20.3,14.13,1.02,1.2,1.96,2.47,2.99,3.78.52-.46.95-.84,1.53-1.35-1.68-2.09-3.17-4.23-4.95-6.09-6.86-7.23-15.37-11.8-24.68-15.05-6.44-2.25-13.01-4.2-19.26-6.9-15.52-6.69-23.74-23.16-20.99-38.5.34-1.88-.24-2.82-1.77-3.61ZM124.89,194.86c-1.42,1.84-2.81,3.54-4.09,5.32-3.95,5.48-7.1,11.32-7.53,18.23-.1,1.64.07,3.35.46,4.95.48,1.94,2.19,2.49,3.74,1.23,1.35-1.1,2.66-2.35,3.62-3.78,5.34-7.93,6.83-16.49,3.8-25.95ZM122.39,181.1c1.8-1.16,1.9-1.25.61-2.65-1.56-1.68-3.19-3.34-4.98-4.76-4.68-3.69-10.14-5.91-15.74-7.74-6.09-2-12.29-3.66-18.31-5.83-12.71-4.58-23.36-11.99-30.82-23.51-.88-1.37-1.59-1.46-3.25-.49.11.25.19.52.34.76,3.29,5.43,7.43,10.14,12.4,14.07,7.33,5.81,15.49,10.11,24.4,12.97,5.98,1.92,12.06,3.56,18,5.59,6.74,2.31,12.69,5.95,17.37,11.59ZM42.74,115.74c1.12,3.94,2.15,7.75,3.28,11.52.43,1.42,1.44,2.45,2.81,3.05,1.06.47,2.14.94,3.25,1.26,6.85,1.98,12.96-3.69,11.41-10.55-.71-3.12-3.36-5.01-7.03-5.02-2.76,0-4.85,1.79-5.6,4.8-.74,2.97,1.93,5.77,5.04,5.33,1.62-.23,2.71-1.85,2.27-3.31-.14-.45-.6-1-1.01-1.1-.43-.1-.98.28-1.47.48-.4.16-.78.35-1.17.52-.24-.57-.81-1.25-.67-1.7.42-1.38,1.56-2.17,2.97-2.35,1.3-.17,2.52.23,3.29,1.4,1.35,2.06.86,5.03-.59,7.02-2.51,3.47-10.93,1.84-11.61-2.39-.22-1.35-.73-2.65-1.02-3.99-.4-1.86-.7-3.74-1.05-5.62-.94.2-1.79.39-3.1.67ZM110.49,205.55c.07.03.13.06.2.08.11-.16.23-.31.32-.48,2.36-4.87,5.68-9.04,9.26-13.04,6.04-6.75,13.18-12.27,20.02-18.14,5.15-4.42,10.32-8.85,14.32-14.42,2.11-2.94,4.14-5.94,5.59-9.29-.58-.47-1.1-.89-1.67-1.36-.23.45-.41.86-.64,1.24-1.49,2.46-2.84,5.02-4.53,7.35-4.29,5.92-9.9,10.57-15.29,15.42-5.67,5.1-11.71,9.8-16.82,15.5-3.81,4.25-7.22,8.79-9.53,14.06-.44,1.01-.81,2.05-1.21,3.07ZM87,154.93c1.21-2.38,2.38-4.68,3.49-6.86-3.97-2.02-7.95-4.05-12.02-6.12-1.09,1.29-2.23,2.68-3.41,4.03-1.19,1.37-2.41,2.71-3.72,4.17,2.51,1.46,4.82,2.8,7.12,4.14.69.4,1.34.29,1.73-.38.64-1.1,1.18-2.25,1.78-3.41-.82-.48-1.5-.87-2.2-1.28-.53.77-1,1.45-1.48,2.14-.94-.53-1.8-1.02-2.71-1.54.93-1.28,1.86-2.41,2.63-3.64.7-1.12,1.38-1.14,2.42-.44,1.14.76,2.39,1.35,3.61,1.98.79.41,1.61.76,2.26,1.06-1,2.3-1.92,4.44-2.87,6.57-.36.81-.07,1.25.7,1.52,1.76.62,3.51,1.29,5.28,1.9,2.27.78,2.28.77,3.02-1.5.02-.07-.02-.16-.04-.3-1.77-.65-3.56-1.3-5.6-2.05ZM105.06,62.98c-.55-.38-1.1-.66-1.5-1.07-.89-.91-2.1-.94-2.45,0-.65,1.79.13,3.29,1.98,3.73.57.14,1.15.24,1.73.29,1.34.13,2.17-.59,2.27-1.92.14-1.83.32-3.66.4-5.5.01-.29-.32-.81-.58-.88-2.42-.59-4.85-1.17-7.3-1.62-1.02-.19-2.72.76-2.81,1.5-.33,2.65-.76,5.3-.76,7.96,0,2.59,1.89,4.5,4.31,5.01,1.18.25,2.37.49,3.55.71,3.98.75,7.32-1.68,7.7-5.53.13-1.32-.27-2.25-1.62-2.93-.24.98-.45,1.9-.68,2.82-.5,2.02-1.69,3.13-3.76,2.88-1.99-.24-3.95-.88-5.86-1.53-.53-.18-1.02-1-1.21-1.62-.54-1.79-.22-3.57.55-5.23.22-.48.73-.99,1.22-1.16,1.53-.54,3.13-.28,4.46.49,1.09.63.57,1.97.57,3.02,0,.08-.06.15-.22.56ZM57.3,136.4c2.89,4.65,6.88,8.35,10.98,11.98,2.61-2.84,5.14-5.6,7.27-7.92-1.86-2.24-3.61-4.34-5.38-6.47-1.68,1.21-3.04,2.21-4.5,3.26.83.73,1.51,1.33,2.24,1.98.68-.55,1.42-1.15,2.24-1.81.83.94,1.63,1.84,2.61,2.94-1.61,1.45-3.18,2.86-4.73,4.25-2.46-2.21-5.08-4.42-6.93-7.71,2.45-1.87,4.87-3.71,7.34-5.6-.5-.7-1.05-1.45-1.6-2.22-3.23,2.48-6.35,4.86-9.55,7.31ZM108.27,39.59c-5.24-4.21-10.36-8.33-14.94-12,6,2.32,11.56,6.64,17.02,11.26-.06-.66-.18-1.28-.54-1.7-2.6-3.11-5.62-5.85-9.18-7.71-5.56-2.91-11.35-5.41-17.04-8.06-.83-.39-1.72-.66-2.84-1.09,1.36,2.44,3.24,3.9,5.23,5.22,3.27,2.17,6.65,4.19,9.84,6.48,3.76,2.71,7.35,5.64,11.06,8.52.34-.23.75-.5,1.39-.93ZM81.82,33.93c.06-.15.13-.3.19-.45,3.47.98,7.04,1.71,10.38,3.03,3.08,1.22,5.9,3.09,8.85,4.65.59.31,1.23.55,2.04.9-.14-.37-.14-.47-.19-.52-.17-.19-.33-.38-.53-.54-3.58-2.83-7.19-5.7-11.65-6.92-4.81-1.31-9.73-2.25-14.6-3.32-1.82-.4-3.65-.7-5.74-1.1.37.48.56.75.77.99,1.62,1.84,3.71,3.01,5.96,3.84,3.63,1.34,7.38,2.39,10.95,3.86,3.84,1.59,7.54,3.53,11.3,5.31.52.25,1.04.49,1.57.73-5.31-5.6-12.35-7.92-19.28-10.46ZM67.38,42.7c-.04.1-.07.2-.11.31.64.37,1.27.77,1.93,1.09,3.5,1.71,7.31,2.21,11.11,2.77,4.82.71,9.64,1.46,14.44,2.27.97.16,1.61.15,1.87-.93-5.81-2.03-11.83-3.03-18.15-3.76.41-.11.6-.21.79-.2,3.22.06,6.48-.15,9.65.28,2.77.38,5.43,1.49,8.15,2.26.51.14,1.06.16,1.82.27-.22-.42-.24-.51-.3-.56-.09-.08-.21-.13-.32-.2-4.57-2.7-9.53-4.01-14.82-3.96-4.86.04-9.73.17-14.59.26-.49,0-.98.06-1.47.1ZM120.01,164.99c.76-1.33,1.51-2.53,2.15-3.8.14-.27.01-.95-.21-1.09-2.54-1.55-5.13-3.02-7.76-4.55-1.7,3.34-3.29,6.44-4.84,9.47,3.82,2.12,7.55,4.19,11.43,6.34,1.99-2.64,4.08-5.4,6.22-8.23-.7-.49-1.23-.86-1.73-1.21-1.74,2.31-3.42,4.53-5.03,6.67-2.67-1.46-5.2-2.85-7.71-4.23.87-1.99,1.72-3.92,2.59-5.9,1.68.9,3.24,1.73,4.83,2.58-.31.54-.55.96-.81,1.41-.94-.36-1.82-.68-2.71-1.02-.65,1.08-.57,1.78.61,2.22.97.36,1.89.84,2.95,1.32ZM93.71,13.85c-.09.1-.17.2-.26.3.44.65.82,1.37,1.34,1.95,3.07,3.44,6.15,6.87,9.27,10.27,3.28,3.58,6.65,7.09,9.89,10.71.71.8,1.1.21,2.09.02-3.5-4.09-6.81-7.94-10.24-11.95.32.18.5.25.65.37,4.16,3.28,8.07,6.81,11.31,11.02.23.3.67.42,1.02.62l.29-.35c-.83-1.24-1.59-2.52-2.5-3.7-2.9-3.79-6.48-6.89-10.26-9.77-4.19-3.18-8.4-6.33-12.6-9.49ZM110.68,154.5c-.41-.18-.67-.31-.94-.39-3.21-1.02-6.43-1.99-9.63-3.07-.86-.29-1.31-.18-1.63.67-.87,2.29-1.84,4.55-2.66,6.87-.52,1.47-.05,2.12,1.46,2.59,1.94.6,3.86,1.28,5.8,1.91,1.17.38,2.34.74,3.59,1.13,1.36-3.3,2.67-6.48,4.01-9.7ZM197.56,88.52c-.18.2-.27.25-.29.32-1.13,5.35-3.69,10-7.22,14.08-4.07,4.7-7.67,9.67-10.06,15.44-.71,1.72-1.35,3.47-2.02,5.2,2.51-4.17,5.43-7.97,8.6-11.58,5.9-6.71,10.21-14.18,10.98-23.46ZM93.16,54.88c-4.1-1.57-8.34-1.68-12.63-1.36,4.03-1.59,8.21-1.59,12.45-1.11-4.07-1.88-8.27-2.23-12.42-.71-3.31,1.21-6.48,2.83-9.69,4.31-.87.4-1.66.98-2.48,1.48.04.1.08.21.12.31,8.18-1.2,16.23-3.49,24.65-2.92ZM142.31,48.87c-1.24-1.19-2.23-2.48-3.52-3.3-1.67-1.06-3.55-1.85-5.4-2.59-2.98-1.17-5.97-2.41-9.24-2.42-.99,0-1.98.33-2.98.51.44,1.01.84,2.04,1.35,3.01.33.63.81.86,1.66.64,2.5-.66,5.01-.64,7.54.05,3.43.93,6.25,2.73,8.39,5.68.7-.5,1.33-.95,2.2-1.58ZM131.11,223.67c12.22-10.93,15.84-28.5,11.22-42.65,1.53,15.68-1.05,30.15-11.22,42.65ZM167.86,143.84c1.27-2.34,2.52-4.63,3.82-7.01-2.02-1.2-3.97-2.36-5.99-3.57-1.54,2.2-3.05,4.38-4.6,6.59,2.26,1.33,4.47,2.64,6.77,3.99ZM118.46,27.07c2.63,2.47,4.25,5.97,5.99,9.39.36-4-7.72-15.58-14.26-20.46.24,1.14.4,2.38,1,3.34,2.67,4.23,5.46,8.38,8.21,12.56.44.66.88,1.32,1.32,1.98.42.61.84,1.22,1.26,1.84.14-.08.28-.15.42-.23-1.35-2.87-2.69-5.75-3.94-8.41ZM73.8,67.81c1.29-.07,2.46.07,3.49-.23,4.66-1.38,9.28-2.88,13.91-4.37.25-.08.42-.42.62-.64-.28-.12-.57-.35-.84-.33-.99.08-2,.17-2.96.4-1.94.46-3.86,1.02-6.05,1.61,2.98-2.81,6.5-3.92,10.17-4.91-4.32-1.95-14.1,4.23-18.34,8.47ZM201.43,92.54c-.57,2.54-1.08,5.62-1.95,8.59-1.55,5.28-4.9,9.55-8.27,13.76-2.65,3.31-5.35,6.59-8.1,9.97,10.68-5.34,19.63-21.51,18.33-32.32ZM51.89,104.31h-2.44c-.61,3.41-.05,6.68.53,9.96,2.86-.73,5.63-1.42,8.39-2.15,1.84-.48,1.87-.58,1.35-2.74-2.48.54-4.97,1.08-7.46,1.62-.12-2.25-.24-4.45-.37-6.69ZM191.16,90.98c-2.37,3.04-4.94,6.15-7.3,9.42-2.1,2.91-4.12,5.9-5.89,9.01-1.45,2.54-1.95,5.44-1.87,8.4,1.45-4.58,3.65-8.74,6.62-12.5,1.5-1.9,2.94-3.86,4.29-5.87,1.8-2.69,3.18-5.6,4.15-8.45ZM126.89,177.46c1.89-1.64,3.71-3.24,5.56-4.79.78-.65.97-1.24.23-2.06-1.24-1.39-2.42-2.83-3.63-4.24-2.27,2.44-4.42,4.74-6.56,7.05,1.45,1.33,2.89,2.65,4.4,4.04ZM171.45,121.35c.97-9.97,5.23-18.47,11.66-25.99-9.3,6.24-12.9,15.03-11.66,25.99ZM158.15,143.62c.29.32.7,1.02,1.32,1.39,3.46,2.09,6.96,4.09,10.45,6.12.29.17.68.46.89.38.56-.22,1.11-.56,1.51-1,.11-.12-.2-.9-.51-1.1-1.99-1.28-4.03-2.51-6.07-3.72-1.93-1.15-3.86-2.3-5.83-3.39-.98-.54-1.72-.12-1.76,1.32ZM91.17,68.39c-.04-.1-.07-.21-.11-.31-1.86.79-3.72,1.56-5.56,2.37-.91.4-1.1,1.02-.54,1.9.73,1.15,1.4,2.33,2.05,3.42,1.86-.85,3.61-1.62,5.33-2.45.59-.28,1.1-.71,1.65-1.08-.7-.23-1.41-.67-2.11-.66-1.38,0-2.76.26-4.13.41-.06-.1-.13-.2-.19-.3,1.21-1.1,2.42-2.2,3.62-3.3ZM168.46,129.14c-.38.3-.91.53-1.12.94-.11.21.26.87.58,1.05,3.51,2.09,7.04,4.15,10.61,6.15.34.19.95-.1,1.44-.17-.1-.48-.13-1-.33-1.44-.12-.27-.49-.44-.78-.61-2.76-1.65-5.51-3.3-8.28-4.93-.6-.35-1.27-.6-2.11-.99ZM202.88,105.6c-1.45,4.53-3.78,8.6-6.54,12.44-2.76,3.84-5.6,7.61-9.54,10.34,8.76-5.19,14.23-12.72,16.08-22.78ZM112.7,41.55c1.07,1.63,1.94,3.02,2.89,4.36.2.28.7.49,1.04.47,1.14-.07,2.28-.25,3.27-.38-.75-1.73-1.5-3.45-2.23-5.13-.64,0-1.32-.07-1.97.02-.85.12-1.69.37-2.99.66ZM131.5,194.5c.97,8.76-1.23,16.94-4.46,24.94,5.14-7.66,7.05-15.9,4.46-24.94ZM123.03,48.8c1.29,0,2.31.04,3.32,0,2.48-.1,4.92-.04,7.24,1.06.79.38,1.73.46,2.6.67-2.48-3.89-10.55-4.4-13.16-1.73ZM136.47,208.4c2.4-6.16,2.37-12.61,1.75-19.07-.58,6.34-1.16,12.71-1.75,19.07ZM126.47,51.18c.97,2.96,2.84,4.44,5.3,4.27,2.25-.15,3.85-.89,4.26-2.42-.68.05-1.45-.14-1.85.17-2.71,2.12-5.47,1.23-6.15-2.16-.51.04-1.03.09-1.57.13ZM78.74,75.53c1.17,1.34,2.2,2.54,3.3,3.81.63-.54,1.24-1.06,1.88-1.6-1.04-1.41-2.01-2.71-3.07-4.14-.73.67-1.37,1.25-2.11,1.94ZM74.31,79.9c1.28,1.3,2.4,2.44,3.54,3.6.5-.6,1.03-1.23,1.64-1.96-1.22-1.18-2.38-2.3-3.59-3.47-.57.65-1.11,1.27-1.6,1.83ZM71.9,83.12c-.36.55-.8.97-.9,1.46-.1.49-.06,1.26.25,1.53.93.81,2.02,1.43,3.12,2.17.47-.78.87-1.44,1.34-2.2-1.29-1-2.53-1.96-3.81-2.96ZM94.14,154.32c.57-1.3,1.16-2.64,1.78-4.04-.88-.35-1.6-.64-2.39-.96-.33.62-.64,1.2-.93,1.79q-1.18,2.37,1.34,3.24s.08,0,.2-.02ZM72.51,91.46c-1.37-.73-2.7-1.44-4.11-2.19-.35.89-.65,1.65-.98,2.51,1.39.61,2.69,1.18,4.01,1.76.41-.77.73-1.39,1.09-2.08ZM59.91,104.44c-1.01,0-1.93,0-2.84,0-1.77-.01-2.14.47-1.66,2.34.77,0,1.56,0,2.35,0,2.06,0,2.09-.04,2.15-2.34ZM45.55,106.25v-2.18h-3.1v2.18h3.1ZM45.56,111.97c-.05-.82-.09-1.57-.13-2.33-1.09.11-2.06.2-3.12.31.09.87.17,1.59.26,2.42,1.06-.14,1.99-.27,3-.4Z"/>
        <path class="cls-3" d="M64.63,73.94c-1.94-1.46-3.8-2.87-5.63-4.25-6.38,5.61-12.44,18.58-13.34,28.53,4.04.47,8.08.94,12.23,1.42.72-3.15,1.41-6.14,2.05-9.15.04-.2-.26-.65-.47-.71-2.01-.51-4.04-.96-6.14-1.45-.47,1.46-.95,2.82-1.33,4.22-.08.31.13,1,.31,1.04.54.12,1.2.14,1.69-.07.34-.15.49-.74.72-1.13.3-.51.58-.83,1.29-.52.69.3.79.62.51,1.24-.13.3-.16.65-.24.97-.59,2.26-.59,2.25-2.91,1.77-.94-.19-1.89-.34-2.84-.48-1.15-.17-1.49-1.02-1.24-1.9.64-2.28,1.37-4.54,2.22-6.75.57-1.48.95-1.54,2.54-1.09,2.68.76,5.37,1.5,8.05,2.27.47.14.92.36,1.1.44-1.12,4.6-2.2,9.07-3.33,13.71-5.48-.45-11.17-.92-17.04-1.4,1.64-16.92,9.12-30.56,22.63-40.97.38.25.75.5,1.13.74.38.24.76.46,1.07.65-2.44,2.32-4.86,4.62-7.37,7.01,2.45,1.88,4.73,3.62,7.08,5.41-1.32,1.75-2.57,3.41-3.9,5.17-1.22-.73-2.38-1.42-3.61-2.15-.65,1.03-1.27,2.01-1.96,3.1,1.9,1.04,3.76,2.05,5.66,3.08,2.44-3.26,4.84-6.46,7.13-9.53-1.6-1.77-3.31-3.66-5.09-5.62,3.2-3.24,6.44-6.8,11.99-6.8-2.94,2.32-5.71,4.51-8.49,6.7,1.36,2.37,3.56,3.87,6.36,4.22-4.44,4.19-8.1,8.86-10.71,14.23-3.39-1.8-6.63-3.51-10.07-5.34,1.4-2.31,2.84-4.67,4.31-7.08,1.11.7,2.09,1.27,3.01,1.92.71.5,1.24.59,1.7-.3.19-.36.51-.65.91-1.15Z"/>
        <path class="cls-3" d="M162.85,63.89c-2.26-3.66-6.17-3.95-9.74-3.03-2.74.7-5.43,1.64-8.19,2.16-1.99.38-4.08.38-6.11.31-3.37-.11-6.69-.05-9.89,1.14-.73.27-1.51.61-2.06,1.13-.52.5-1.05,1.27-1.05,1.93,0,.4.91,1,1.52,1.18,3.51,1.08,6.79,2.55,9.58,5,1.38,1.22,2.82,2.37,4.22,3.57,2.4,2.05,4.92,3.86,8.31,3.86-1.88,3.08-5.87,3.65-8.43,3.44-.26-.02-.56-.21-.76-.41-5.06-4.93-11.47-7.38-17.96-9.59-3.45-1.18-7.05-1.92-10.48-2.84,1.58-2.21,1.99-2.37,4.82-1.52,1.27.38,2.52.82,3.77,1.23-.42-2.31-1.64-3-6.44-3.56v-2.17c2.29.35,4.55.7,6.93,1.07.05.51.12,1.2.19,1.9.18,1.89,1.3,2.95,3,3.62,2.86,1.13,5.75,2.22,8.5,3.59,2.72,1.36,5.27,3.05,7.91,4.58.45.26.95.44,1.5.52-2.6-2.2-5.15-4.45-7.8-6.59-2.33-1.89-5.09-2.98-7.93-3.88-3.16-.99-3.74-3.22-1.57-5.74,1.96-2.28,4.56-2.93,7.4-3.09,4.05-.23,8.13-.28,12.14-.81,4.63-.62,7.86-3.34,9.43-7.78.46-1.29,1.32-1.8,2.46-1.93,4.02-.42,7.42,1.03,7.62,6.22.12,3.16-.12,5-.86,6.48ZM156.07,57.86c.91-.66,1.68-1.23,2.58-1.88.55.28,1.23.64,1.98,1.03-.02-1.23-.11-2.5-1.41-2.91-.76-.24-1.9-.18-2.53.25-1.03.69-1.18,1.92-.62,3.52Z"/>
        <path class="cls-3" d="M111.01,55.5c-4.62-.58-9.04-1.5-13.23-3.62,1.28-1.22,2.47-2.36,3.71-3.55,3.34,3.02,7.05,5.02,11.84,4.5-1.58-1.09-3.17-1.97-4.5-3.15-1.35-1.21-2.45-2.71-3.8-4.25,1.39-.9,2.59-1.69,3.84-2.5.98,1.49,1.82,2.82,2.71,4.12,1.43,2.1,3.25,3.19,5.98,3.18,3.1-.01,5.62,1.49,7.45,4.16,2.46,3.61,8.09,4.81,11.6,2.26,2.04-1.48,3.7-3.49,6.19-4.35.04-.01.07-.05.09-.09,1.36-2.18,3.46-2.3,5.69-2.05,1.08.12,2.16.2,3.38.31-.54,2.61-1.63,4.78-3.76,6.32-2.31,1.68-5.02,2.21-7.79,2.38-3.01.18-6.03.15-9.04.29-3.19.14-6.03,1.15-8.3,3.54-.42.45-1.13.89-1.7.9-1.91.02-3.85-.02-5.74-.31-3.64-.58-5.28-4.78-4.62-8.09ZM115.51,53.79c.69.24,1.08.4,1.49.51.72.18,1.5.21,2.17.52.99.45,1.2,1.47.91,2.36-.17.53-.88,1.1-1.45,1.24-.84.21-1.79.27-2.25-.94-.27-.72-.93-1.29-1.44-1.96-1.56,1.71-1.08,4.16.86,4.93,1.71.69,3.49.78,5.23,0,1.12-.51,1.91-1.4,1.83-2.62-.12-1.82-.66-3.49-2.41-4.56-1.64-1.01-3.08-.57-4.93.52ZM147.22,54.18c-.04-.12-.08-.24-.12-.37-2.89-.62-4.83.25-6.33,3.11,2.15-.92,4.3-1.83,6.45-2.75Z"/>
        <path class="cls-3" d="M66.07,98.31c1.53.79,2.1,1.73,1.77,3.61-2.75,15.34,5.47,31.81,20.99,38.5,6.25,2.69,12.82,4.64,19.26,6.9,9.31,3.26,17.82,7.83,24.68,15.05,1.77,1.87,3.27,4.01,4.95,6.09-.58.51-1,.88-1.53,1.35-1.03-1.31-1.97-2.58-2.99-3.78-5.53-6.49-12.53-10.95-20.3-14.13-5.54-2.26-11.32-3.91-16.98-5.87-5.69-1.97-11.26-4.22-16.1-7.92-7.63-5.83-12.24-13.57-14.3-22.88-1.17-5.31-1.08-10.62.23-15.9.09-.35.21-.69.32-1.03Z"/>
        <path class="cls-3" d="M122.39,181.1c-4.68-5.64-10.63-9.28-17.37-11.59-5.94-2.04-12.02-3.67-18-5.59-8.9-2.86-17.07-7.16-24.4-12.97-4.96-3.93-9.1-8.64-12.4-14.07-.14-.24-.23-.51-.34-.76,1.65-.97,2.36-.88,3.25.49,7.46,11.53,18.11,18.93,30.82,23.51,6.02,2.17,12.22,3.84,18.31,5.83,5.6,1.84,11.06,4.05,15.74,7.74,1.8,1.42,3.43,3.07,4.98,4.76,1.29,1.4,1.19,1.49-.61,2.65Z"/>
        <path class="cls-3" d="M42.74,115.74c1.31-.28,2.16-.47,3.1-.67.35,1.88.65,3.76,1.05,5.62.29,1.34.8,2.64,1.02,3.99.69,4.23,9.11,5.86,11.61,2.39,1.44-1.99,1.93-4.96.59-7.02-.76-1.17-1.98-1.56-3.29-1.4-1.4.18-2.55.98-2.97,2.35-.14.46.43,1.13.67,1.7.39-.17.77-.36,1.17-.52.49-.19,1.04-.58,1.47-.48.41.09.87.65,1.01,1.1.45,1.46-.65,3.08-2.27,3.31-3.11.44-5.79-2.36-5.04-5.33.75-3.01,2.84-4.8,5.6-4.8,3.67,0,6.32,1.9,7.03,5.02,1.56,6.87-4.55,12.54-11.41,10.55-1.11-.32-2.19-.79-3.25-1.26-1.37-.6-2.39-1.63-2.81-3.05-1.13-3.77-2.17-7.58-3.28-11.52Z"/>
        <path class="cls-3" d="M110.49,205.55c.4-1.03.77-2.07,1.21-3.07,2.32-5.27,5.73-9.81,9.53-14.06,5.11-5.7,11.15-10.41,16.82-15.5,5.39-4.84,11.01-9.49,15.29-15.42,1.68-2.32,3.03-4.89,4.53-7.35.23-.38.41-.79.64-1.24.58.47,1.09.89,1.67,1.36-1.45,3.35-3.48,6.35-5.59,9.29-4,5.57-9.17,10-14.32,14.42-6.84,5.87-13.98,11.39-20.02,18.14-3.58,4-6.9,8.17-9.26,13.04-.08.17-.21.32-.32.48-.07-.03-.13-.06-.2-.08Z"/>
        <path class="cls-3" d="M87,154.93c2.05.75,3.84,1.4,5.6,2.05.02.14.06.23.04.3-.75,2.27-.75,2.28-3.02,1.5-1.77-.61-3.52-1.27-5.28-1.9-.77-.27-1.06-.71-.7-1.52.94-2.13,1.86-4.27,2.87-6.57-.64-.3-1.46-.65-2.26-1.06-1.22-.63-2.47-1.22-3.61-1.98-1.04-.7-1.72-.68-2.42.44-.77,1.23-1.7,2.36-2.63,3.64.91.52,1.77,1.01,2.71,1.54.48-.69.95-1.37,1.48-2.14.7.41,1.38.8,2.2,1.28-.6,1.16-1.14,2.32-1.78,3.41-.39.67-1.04.78-1.73.38-2.31-1.34-4.61-2.68-7.12-4.14,1.3-1.46,2.53-2.8,3.72-4.17,1.18-1.36,2.32-2.74,3.41-4.03,4.07,2.07,8.05,4.1,12.02,6.12-1.11,2.18-2.28,4.47-3.49,6.86Z"/>
        <path class="cls-3" d="M105.06,62.98c.16-.41.22-.49.22-.56,0-1.06.52-2.39-.57-3.02-1.33-.77-2.93-1.03-4.46-.49-.49.17-1,.68-1.22,1.16-.77,1.66-1.08,3.44-.55,5.23.19.62.67,1.44,1.21,1.62,1.91.66,3.87,1.29,5.86,1.53,2.08.25,3.26-.86,3.76-2.88.23-.92.44-1.84.68-2.82,1.36.67,1.75,1.6,1.62,2.93-.38,3.85-3.73,6.28-7.7,5.53-1.19-.22-2.37-.47-3.55-.71-2.42-.5-4.3-2.41-4.31-5.01,0-2.65.43-5.31.76-7.96.09-.74,1.78-1.69,2.81-1.5,2.45.45,4.88,1.03,7.3,1.62.26.06.59.58.58.88-.09,1.84-.26,3.67-.4,5.5-.1,1.33-.93,2.04-2.27,1.92-.58-.05-1.16-.16-1.73-.29-1.85-.44-2.64-1.94-1.98-3.73.35-.95,1.55-.92,2.45,0,.41.41.95.69,1.5,1.07Z"/>
        <path class="cls-3" d="M57.3,136.4c3.2-2.45,6.31-4.83,9.55-7.31.55.77,1.1,1.52,1.6,2.22-2.47,1.89-4.89,3.73-7.34,5.6,1.84,3.28,4.47,5.5,6.93,7.71,1.55-1.39,3.12-2.8,4.73-4.25-.98-1.11-1.77-2-2.61-2.94-.82.67-1.56,1.26-2.24,1.81-.73-.65-1.41-1.25-2.24-1.98,1.46-1.06,2.82-2.05,4.5-3.26,1.77,2.13,3.51,4.23,5.38,6.47-2.13,2.32-4.66,5.08-7.27,7.92-4.1-3.63-8.09-7.33-10.98-11.98Z"/>
        <path class="cls-3" d="M108.27,39.59c-.64.43-1.04.7-1.39.93-3.72-2.88-7.31-5.81-11.06-8.52-3.18-2.29-6.56-4.31-9.84-6.48-1.99-1.32-3.87-2.78-5.23-5.22,1.12.42,2,.7,2.84,1.09,5.7,2.65,11.48,5.15,17.04,8.06,3.56,1.86,6.57,4.6,9.18,7.71.36.42.48,1.05.54,1.7-5.46-4.62-11.02-8.94-17.02-11.26,4.58,3.68,9.7,7.8,14.94,12Z"/>
        <path class="cls-3" d="M81.82,33.93c6.92,2.54,13.97,4.86,19.28,10.46-.52-.24-1.05-.48-1.57-.73-3.76-1.79-7.46-3.73-11.3-5.31-3.57-1.48-7.32-2.53-10.95-3.86-2.25-.83-4.33-2-5.96-3.84-.21-.24-.39-.51-.77-.99,2.09.4,3.93.7,5.74,1.1,4.88,1.07,9.79,2.01,14.6,3.32,4.47,1.22,8.08,4.09,11.65,6.92.2.15.36.35.53.54.05.06.06.15.19.52-.81-.36-1.45-.59-2.04-.9-2.95-1.56-5.77-3.43-8.85-4.65-3.34-1.32-6.91-2.04-10.38-3.03-.06.15-.13.3-.19.45Z"/>
        <path class="cls-3" d="M67.38,42.7c.49-.03.98-.09,1.47-.1,4.86-.09,9.73-.22,14.59-.26,5.29-.04,10.25,1.27,14.82,3.96.11.06.22.12.32.2.06.05.08.14.3.56-.76-.11-1.31-.13-1.82-.27-2.72-.76-5.38-1.88-8.15-2.26-3.17-.43-6.43-.22-9.65-.28-.19,0-.38.09-.79.2,6.32.73,12.33,1.73,18.15,3.76-.26,1.08-.9,1.1-1.87.93-4.8-.82-9.62-1.56-14.44-2.27-3.8-.56-7.6-1.06-11.11-2.77-.66-.32-1.29-.73-1.93-1.09.04-.1.07-.2.11-.31Z"/>
        <path class="cls-3" d="M120.01,164.99c-1.06-.48-1.98-.96-2.95-1.32-1.18-.44-1.26-1.14-.61-2.22.89.33,1.76.66,2.71,1.02.26-.45.5-.87.81-1.41-1.6-.85-3.16-1.69-4.83-2.58-.87,1.99-1.72,3.91-2.59,5.9,2.51,1.38,5.04,2.77,7.71,4.23,1.61-2.14,3.29-4.37,5.03-6.67.5.35,1.03.72,1.73,1.21-2.14,2.83-4.22,5.59-6.22,8.23-3.87-2.15-7.61-4.23-11.43-6.34,1.55-3.04,3.13-6.14,4.84-9.47,2.63,1.53,5.21,3,7.76,4.55.22.13.35.82.21,1.09-.64,1.26-1.38,2.47-2.15,3.8Z"/>
        <path class="cls-3" d="M93.71,13.85c4.2,3.16,8.41,6.31,12.6,9.49,3.78,2.87,7.36,5.97,10.26,9.77.9,1.18,1.67,2.47,2.5,3.7l-.29.35c-.34-.2-.79-.33-1.02-.62-3.24-4.22-7.15-7.75-11.31-11.02-.15-.11-.32-.19-.65-.37,3.44,4.01,6.74,7.86,10.24,11.95-.99.19-1.37.78-2.09-.02-3.24-3.62-6.61-7.13-9.89-10.71-3.12-3.4-6.2-6.83-9.27-10.27-.52-.58-.9-1.3-1.34-1.95.09-.1.17-.2.26-.3Z"/>
        <path class="cls-3" d="M110.68,154.5c-1.33,3.23-2.65,6.41-4.01,9.7-1.25-.39-2.42-.74-3.59-1.13-1.94-.63-3.86-1.31-5.8-1.91-1.51-.47-1.98-1.12-1.46-2.59.82-2.31,1.79-4.57,2.66-6.87.32-.85.77-.96,1.63-.67,3.19,1.08,6.42,2.05,9.63,3.07.27.09.53.22.94.39ZM105.45,161.45c.64-1.5,1.22-2.96,1.87-4.39.44-.96.07-1.55-.81-1.85-1.8-.63-3.61-1.23-5.44-1.78-.22-.07-.71.14-.79.34-.71,1.78-1.36,3.6-2.04,5.42,2.94.65,2.22.85,3.23-1.22.78-1.6,1.16-1.72,2.82-.59-.11.38-.22.77-.36,1.16q-.74,2.08,1.51,2.91Z"/>
        <path class="cls-3" d="M197.56,88.52c-.77,9.29-5.08,16.75-10.98,23.46-3.18,3.61-6.09,7.42-8.6,11.58.67-1.73,1.31-3.48,2.02-5.2,2.39-5.77,5.99-10.74,10.06-15.44,3.53-4.08,6.09-8.74,7.22-14.08.01-.07.11-.12.29-.32Z"/>
        <path class="cls-3" d="M93.16,54.88c-8.42-.57-16.47,1.72-24.65,2.92-.04-.1-.08-.21-.12-.31.83-.5,1.61-1.08,2.48-1.48,3.21-1.48,6.38-3.1,9.69-4.31,4.15-1.52,8.35-1.17,12.42.71-4.24-.49-8.42-.48-12.45,1.11,4.29-.32,8.53-.21,12.63,1.36Z"/>
        <path class="cls-3" d="M142.31,48.87c-.87.62-1.5,1.07-2.2,1.58-2.14-2.95-4.96-4.75-8.39-5.68-2.53-.69-5.04-.71-7.54-.05-.85.22-1.33,0-1.66-.64-.51-.97-.9-2-1.35-3.01.99-.18,1.98-.52,2.98-.51,3.27.02,6.26,1.25,9.24,2.42,1.86.73,3.73,1.52,5.4,2.59,1.29.82,2.28,2.11,3.52,3.3Z"/>
        <path class="cls-3" d="M131.11,223.67c10.17-12.49,12.75-26.97,11.22-42.65,4.62,14.15,1,31.72-11.22,42.65Z"/>
        <path class="cls-3" d="M167.86,143.84c-2.29-1.35-4.51-2.66-6.77-3.99,1.54-2.21,3.06-4.38,4.6-6.59,2.02,1.2,3.97,2.36,5.99,3.57-1.3,2.38-2.55,4.67-3.82,7.01Z"/>
        <path class="cls-3" d="M118.46,27.07c1.25,2.66,2.6,5.54,3.94,8.41-.14.08-.28.15-.42.23-.42-.61-.85-1.22-1.26-1.84-.44-.66-.88-1.31-1.32-1.98-2.75-4.18-5.54-8.33-8.21-12.56-.6-.96-.76-2.19-1-3.34,6.54,4.88,14.62,16.47,14.26,20.46-1.74-3.42-3.37-6.92-5.99-9.39Z"/>
        <path class="cls-3" d="M73.8,67.81c4.24-4.24,14.02-10.42,18.34-8.47-3.67.99-7.19,2.1-10.17,4.91,2.19-.59,4.11-1.15,6.05-1.61.97-.23,1.97-.32,2.96-.4.27-.02.56.21.84.33-.21.22-.37.56-.62.64-4.63,1.49-9.25,2.99-13.91,4.37-1.03.31-2.2.16-3.49.23Z"/>
        <path class="cls-3" d="M201.43,92.54c1.3,10.81-7.65,26.98-18.33,32.32,2.75-3.38,5.45-6.66,8.1-9.97,3.37-4.21,6.72-8.48,8.27-13.76.87-2.97,1.38-6.05,1.95-8.59Z"/>
        <path class="cls-3" d="M51.89,104.31c.12,2.25.24,4.45.37,6.69,2.5-.54,4.98-1.08,7.46-1.62.53,2.16.49,2.26-1.35,2.74-2.76.73-5.53,1.42-8.39,2.15-.58-3.29-1.14-6.56-.53-9.96h2.44Z"/>
        <path class="cls-3" d="M191.16,90.98c-.96,2.85-2.35,5.76-4.15,8.45-1.35,2.01-2.79,3.97-4.29,5.87-2.97,3.77-5.17,7.93-6.62,12.5-.08-2.96.41-5.86,1.87-8.4,1.78-3.11,3.79-6.1,5.89-9.01,2.36-3.27,4.93-6.39,7.3-9.42Z"/>
        <path class="cls-3" d="M126.89,177.46c-1.52-1.39-2.95-2.71-4.4-4.04,2.15-2.3,4.29-4.61,6.56-7.05,1.21,1.42,2.39,2.86,3.63,4.24.74.82.55,1.41-.23,2.06-1.85,1.55-3.66,3.15-5.56,4.79ZM126.95,175.05c1.4-1.18,2.71-2.28,4.03-3.4-.72-.78-1.4-1.51-2.09-2.25-1.2,1.32-2.34,2.58-3.49,3.86.53.61,1.02,1.17,1.56,1.79Z"/>
        <path class="cls-3" d="M171.45,121.35c-1.24-10.97,2.36-19.76,11.66-25.99-6.42,7.52-10.69,16.02-11.66,25.99Z"/>
        <path class="cls-3" d="M158.15,143.62c.04-1.44.78-1.87,1.76-1.32,1.96,1.09,3.9,2.24,5.83,3.39,2.04,1.22,4.08,2.44,6.07,3.72.3.19.62.97.51,1.1-.4.43-.95.77-1.51,1-.21.09-.61-.21-.89-.38-3.49-2.03-6.99-4.04-10.45-6.12-.61-.37-1.02-1.07-1.32-1.39Z"/>
        <path class="cls-3" d="M91.17,68.39c-1.21,1.1-2.42,2.2-3.62,3.3.06.1.13.2.19.3,1.38-.15,2.75-.4,4.13-.41.7,0,1.41.43,2.11.66-.55.36-1.06.79-1.65,1.08-1.72.83-3.47,1.6-5.33,2.45-.65-1.09-1.33-2.27-2.05-3.42-.55-.87-.37-1.5.54-1.9,1.85-.81,3.71-1.58,5.56-2.37.04.1.07.21.11.31Z"/>
        <path class="cls-3" d="M168.46,129.14c.84.39,1.51.64,2.11.99,2.77,1.63,5.53,3.28,8.28,4.93.28.17.66.34.78.61.2.44.23.96.33,1.44-.49.07-1.1.36-1.44.17-3.57-2-7.1-4.06-10.61-6.15-.31-.19-.68-.85-.58-1.05.21-.4.74-.64,1.12-.94Z"/>
        <path class="cls-3" d="M202.88,105.6c-1.84,10.07-7.31,17.6-16.08,22.78,3.94-2.73,6.78-6.5,9.54-10.34,2.76-3.84,5.08-7.91,6.54-12.44Z"/>
        <path class="cls-3" d="M112.7,41.55c1.3-.3,2.14-.54,2.99-.66.65-.09,1.33-.02,1.97-.02.73,1.69,1.48,3.4,2.23,5.13-.99.12-2.13.31-3.27.38-.34.02-.84-.2-1.04-.47-.95-1.34-1.82-2.73-2.89-4.36Z"/>
        <path class="cls-3" d="M131.5,194.5c2.59,9.04.68,17.28-4.46,24.94,3.23-8,5.43-16.18,4.46-24.94Z"/>
        <path class="cls-3" d="M123.03,48.8c2.61-2.68,10.68-2.16,13.16,1.73-.87-.21-1.81-.29-2.6-.67-2.32-1.1-4.75-1.17-7.24-1.06-1.01.04-2.02,0-3.32,0Z"/>
        <path class="cls-3" d="M136.47,208.4c.58-6.36,1.17-12.73,1.75-19.07.62,6.47.65,12.91-1.75,19.07Z"/>
        <path class="cls-3" d="M126.47,51.18c.54-.05,1.06-.09,1.57-.13.69,3.38,3.44,4.28,6.15,2.16.39-.31,1.17-.12,1.85-.17-.41,1.53-2.01,2.27-4.26,2.42-2.47.16-4.33-1.32-5.3-4.27Z"/>
        <path class="cls-3" d="M78.74,75.53c.74-.68,1.37-1.26,2.11-1.94,1.07,1.44,2.03,2.73,3.07,4.14-.63.54-1.24,1.06-1.88,1.6-1.1-1.27-2.14-2.47-3.3-3.81Z"/>
        <path class="cls-3" d="M74.31,79.9c.49-.56,1.03-1.17,1.6-1.83,1.21,1.17,2.37,2.29,3.59,3.47-.62.73-1.14,1.36-1.64,1.96-1.15-1.16-2.27-2.3-3.54-3.6Z"/>
        <path class="cls-3" d="M71.9,83.12c1.29,1,2.52,1.96,3.81,2.96-.47.76-.87,1.43-1.34,2.2-1.1-.74-2.19-1.36-3.12-2.17-.31-.27-.36-1.05-.25-1.53.1-.49.54-.91.9-1.46Z"/>
        <path class="cls-3" d="M94.14,154.32c-.12.01-.17.03-.2.02q-2.51-.86-1.34-3.24c.29-.59.61-1.17.93-1.79.79.32,1.51.61,2.39.96-.62,1.4-1.21,2.74-1.78,4.04Z"/>
        <path class="cls-3" d="M72.51,91.46c-.36.69-.68,1.3-1.09,2.08-1.32-.58-2.61-1.15-4.01-1.76.34-.86.63-1.62.98-2.51,1.41.75,2.75,1.46,4.11,2.19Z"/>
        <path class="cls-3" d="M59.91,104.44c-.06,2.3-.09,2.33-2.15,2.34-.79,0-1.58,0-2.35,0-.48-1.87-.12-2.35,1.66-2.34.92,0,1.83,0,2.84,0Z"/>
        <path class="cls-3" d="M45.55,106.25h-3.1v-2.18h3.1v2.18Z"/>
        <path class="cls-3" d="M45.56,111.97c-1.01.14-1.94.26-3,.4-.09-.83-.16-1.55-.26-2.42,1.06-.11,2.03-.2,3.12-.31.04.75.09,1.51.13,2.33Z"/>
        <path class="cls-1" d="M156.07,57.86c-.56-1.61-.42-2.83.62-3.52.64-.42,1.77-.49,2.53-.25,1.3.41,1.39,1.68,1.41,2.91-.75-.39-1.44-.74-1.98-1.03-.9.65-1.67,1.22-2.58,1.88Z"/>
        <path class="cls-1" d="M115.51,53.79c1.85-1.09,3.29-1.52,4.93-.52,1.74,1.07,2.28,2.74,2.41,4.56.08,1.22-.71,2.11-1.83,2.62-1.74.78-3.52.69-5.23,0-1.93-.78-2.42-3.23-.86-4.93.51.67,1.17,1.24,1.44,1.96.46,1.21,1.4,1.15,2.25.94.57-.14,1.28-.71,1.45-1.24.29-.89.08-1.91-.91-2.36-.66-.3-1.45-.33-2.17-.52-.41-.1-.8-.27-1.49-.51Z"/>
        <path class="cls-1" d="M147.22,54.18c-2.15.92-4.3,1.83-6.45,2.75,1.5-2.86,3.44-3.73,6.33-3.11.04.12.08.24.12.37Z"/>
        <path class="cls-1" d="M105.45,161.45q-2.25-.83-1.51-2.91c.14-.39.24-.79.36-1.16-1.66-1.13-2.05-1.01-2.82.59-1.01,2.08-.28,1.87-3.23,1.22.67-1.82,1.32-3.63,2.04-5.42.08-.2.57-.41.79-.34,1.83.55,3.64,1.15,5.44,1.78.88.31,1.25.89.81,1.85-.65,1.43-1.24,2.89-1.87,4.39Z"/>
        <path class="cls-1" d="M126.95,175.05c-.54-.62-1.03-1.18-1.56-1.79,1.16-1.28,2.3-2.54,3.49-3.86.69.75,1.37,1.48,2.09,2.25-1.32,1.11-2.62,2.21-4.03,3.4Z"/>
      </g>
    </g>
  </g>
</svg>